HIERARCHY
ROOT hip
{
  OFFSET 0 0 0
  CHANNELS 6 Xposition Yposition Zposition Zrotation Yrotation Xrotation
  JOINT abdomen
  {
    OFFSET 0 20.6881 -0.73152
    CHANNELS 3 Zrotation Xrotation Yrotation
    JOINT chest
    {
      OFFSET 0 11.7043 -0.48768
      CHANNELS 3 Zrotation Xrotation Yrotation
      JOINT neck
      {
        OFFSET 0 22.1894 -2.19456
        CHANNELS 3 Zrotation Xrotation Yrotation
        JOINT head
        {
          OFFSET -0.24384 7.07133 1.2192
          CHANNELS 3 Zrotation Xrotation Yrotation
          JOINT leftEye
          {
            OFFSET 4.14528 8.04674 8.04672
            CHANNELS 3 Zrotation Xrotation Yrotation
            End Site
            {
              OFFSET 1 0 0
            }
          }
          JOINT rightEye
          {
            OFFSET -3.6576 8.04674 8.04672
            CHANNELS 3 Zrotation Xrotation Yrotation
            End Site
            {
              OFFSET 1 0 0
            }
          }
        }
      }
      JOINT rCollar
      {
        OFFSET -2.68224 19.2634 -4.8768
        CHANNELS 3 Zrotation Xrotation Yrotation
        JOINT rShldr
        {
          OFFSET -8.77824 -1.95073 1.46304
          CHANNELS 3 Zrotation Xrotation Yrotation
          JOINT rForeArm
          {
            OFFSET -28.1742 -1.7115 0.48768
            CHANNELS 3 Zrotation Xrotation Yrotation
            JOINT rHand
            {
              OFFSET -22.5879 0.773209 7.07136
              CHANNELS 3 Zrotation Xrotation Yrotation
              JOINT rThumb1
              {
                OFFSET -1.2192 -0.487915 3.41376
                CHANNELS 3 Zrotation Xrotation Yrotation
                JOINT rThumb2
                {
                  OFFSET -3.37035 -0.52449 3.41376
                  CHANNELS 3 Zrotation Xrotation Yrotation
                  End Site
                  {
                    OFFSET -1.78271 -1.18214 1.43049
                  }
                }
              }
              JOINT rIndex1
              {
                OFFSET -7.75947 0.938293 5.60832
                CHANNELS 3 Zrotation Xrotation Yrotation
                JOINT rIndex2
                {
                  OFFSET -2.54057 -0.884171 1.56538
                  CHANNELS 3 Zrotation Xrotation Yrotation
                  End Site
                  {
                    OFFSET -1.62519 -0.234802 1.16502
                  }
                }
              }
              JOINT rMid1
              {
                OFFSET -8.24714 1.18213 3.41376
                CHANNELS 3 Zrotation Xrotation Yrotation
                JOINT rMid2
                {
                  OFFSET -3.10165 -0.590103 1.0647
                  CHANNELS 3 Zrotation Xrotation Yrotation
                  End Site
                  {
                    OFFSET -2.48547 -0.328903 0.83742
                  }
                }
              }
              JOINT rRing1
              {
                OFFSET -8.82822 0.546677 1.51678
                CHANNELS 3 Zrotation Xrotation Yrotation
                JOINT rRing2
                {
                  OFFSET -2.60934 -0.819778 -0.0198488
                  CHANNELS 3 Zrotation Xrotation Yrotation
                  End Site
                  {
                    OFFSET -2.33842 -0.294052 0.168128
                  }
                }
              }
              JOINT rPinky1
              {
                OFFSET -8.27202 -0.0477905 -0.4584
                CHANNELS 3 Zrotation Xrotation Yrotation
                JOINT rPinky2
                {
                  OFFSET -1.82734 -0.647385 -0.700984
                  CHANNELS 3 Zrotation Xrotation Yrotation
                  End Site
                  {
                    OFFSET -1.69225 -0.51767 -0.607171
                  }
                }
              }
            }
          }
        }
      }
      JOINT lCollar
      {
        OFFSET 2.68224 19.2634 -4.8768
        CHANNELS 3 Zrotation Xrotation Yrotation
        JOINT lShldr
        {
          OFFSET 8.77824 -1.95073 1.46304
          CHANNELS 3 Zrotation Xrotation Yrotation
          JOINT lForeArm
          {
            OFFSET 28.1742 -1.7115 0.48768
            CHANNELS 3 Zrotation Xrotation Yrotation
            JOINT lHand
            {
              OFFSET 22.5879 0.773209 7.07136
              CHANNELS 3 Zrotation Xrotation Yrotation
              JOINT lThumb1
              {
                OFFSET 1.2192 -0.487915 3.41376
                CHANNELS 3 Zrotation Xrotation Yrotation
                JOINT lThumb2
                {
                  OFFSET 3.37035 -0.52449 3.41376
                  CHANNELS 3 Zrotation Xrotation Yrotation
                  End Site
                  {
                    OFFSET 1.78271 -1.18214 1.43049
                  }
                }
              }
              JOINT lIndex1
              {
                OFFSET 7.75947 0.938293 5.60832
                CHANNELS 3 Zrotation Xrotation Yrotation
                JOINT lIndex2
                {
                  OFFSET 2.54057 -0.884171 1.56538
                  CHANNELS 3 Zrotation Xrotation Yrotation
                  End Site
                  {
                    OFFSET 1.62519 -0.234802 1.16502
                  }
                }
              }
              JOINT lMid1
              {
                OFFSET 8.24714 1.18213 3.41376
                CHANNELS 3 Zrotation Xrotation Yrotation
                JOINT lMid2
                {
                  OFFSET 3.10165 -0.590103 1.0647
                  CHANNELS 3 Zrotation Xrotation Yrotation
                  End Site
                  {
                    OFFSET 2.48547 -0.328903 0.83742
                  }
                }
              }
              JOINT lRing1
              {
                OFFSET 8.82822 0.546677 1.51678
                CHANNELS 3 Zrotation Xrotation Yrotation
                JOINT lRing2
                {
                  OFFSET 2.60934 -0.819778 -0.0198488
                  CHANNELS 3 Zrotation Xrotation Yrotation
                  End Site
                  {
                    OFFSET 2.33842 -0.294052 0.168128
                  }
                }
              }
              JOINT lPinky1
              {
                OFFSET 8.27202 -0.0477905 -0.4584
                CHANNELS 3 Zrotation Xrotation Yrotation
                JOINT lPinky2
                {
                  OFFSET 1.82734 -0.647385 -0.700984
                  CHANNELS 3 Zrotation Xrotation Yrotation
                  End Site
                  {
                    OFFSET 1.69225 -0.51767 -0.607171
                  }
                }
              }
            }
          }
        }
      }
    }
  }
  JOINT rButtock
  {
    OFFSET -8.77824 4.35084 1.2192
    CHANNELS 3 Zrotation Xrotation Yrotation
    JOINT rThigh
    {
      OFFSET 0 -1.70687 -2.19456
      CHANNELS 3 Zrotation Xrotation Yrotation
      JOINT rShin
      {
        OFFSET 0 -36.8199 0.73152
        CHANNELS 3 Zrotation Xrotation Yrotation
        JOINT rFoot
        {
          OFFSET 0.73152 -45.1104 -5.12064
          CHANNELS 3 Zrotation Xrotation Yrotation
          End Site
          {
            OFFSET -1.1221 -3.69964 12.103
          }
        }
      }
    }
  }
  JOINT lButtock
  {
    OFFSET 8.77824 4.35084 1.2192
    CHANNELS 3 Zrotation Xrotation Yrotation
    JOINT lThigh
    {
      OFFSET 0 -1.70687 -2.19456
      CHANNELS 3 Zrotation Xrotation Yrotation
      JOINT lShin
      {
        OFFSET 0 -36.8199 0.73152
        CHANNELS 3 Zrotation Xrotation Yrotation
        JOINT lFoot
        {
          OFFSET -0.73152 -45.1104 -5.12064
          CHANNELS 3 Zrotation Xrotation Yrotation
          End Site
          {
            OFFSET 1.1221 -3.69964 12.103
          }
        }
      }
    }
  }
}
MOTION
Frames:	6
Frame Time:	0.00833333
28.5849 83.0696 144.732 0.0 0.0 0.0 -3.29161 -0.00200117 -0.0897123 -0.910493 0.0108271 -0.157566 -1.723e-14 0.0 1.49088e-16 -5.26003e-14 3.18055e-15 2.95071e-16 -0.0 0.0 0.0 -0.0 0.0 0.0 -8.50038e-15 -1.27346e-16 2.98177e-16 -1.82922e-13 -2.51587e-15 9.93923e-16 -3.14626e-12 8.53383e-13 6.36111e-14 -3.5995e-11 -1.40424e-12 2.54444e-13 -8.49106e-11 -1.19556e-12 7.18805e-13 -1.46635e-10 -2.06418e-12 1.24996e-12 -8.49077e-11 -1.19311e-12 7.09264e-13 7.73091 5.47488 0.417314 -8.49103e-11 -1.19519e-12 7.21986e-13 2.90554 0.965183 0.102902 -8.49002e-11 -1.19539e-12 7.22781e-13 10.2786 0.731801 0.0259123 -8.49145e-11 -1.1939e-12 7.34708e-13 2.22167 -0.733487 -0.20892 -8.69505e-15 -1.28511e-16 -1.49089e-16 -1.85342e-13 -2.80783e-15 -1.98785e-16 -3.14949e-12 -1.0297e-12 5.40694e-14 -3.60299e-11 4.71144e-13 2.70347e-13 -8.49814e-11 -1.20864e-12 7.06083e-13 -1.46743e-10 -2.08326e-12 1.22849e-12 -8.49868e-11 -1.20821e-12 7.15625e-13 -7.73091 5.47488 -0.417314 -8.49806e-11 -1.20891e-12 7.06083e-13 -2.90554 0.965183 -0.102902 -8.49875e-11 -1.20851e-12 7.06083e-13 -10.2786 0.731801 -0.0259123 -8.49713e-11 -1.20623e-12 6.96541e-13 -2.22167 -0.733487 0.20892 -2.03217e-16 0.0 -3.88251e-19 -2.14071 -1.93291 0.0183704 -0.00780743 -2.07877 -0.0636323 -0.355945 4.00069 0.11728 2.03217e-16 0.0 3.88251e-19 -2.88097 -9.67715 0.338997 -0.0100194 11.9463 -0.261547 0.458769 -2.28004 -0.00598282
23.2409 80.1556 136.546 -141.885 -84.9431 160.004 -3.26249 -7.37075 0.873905 -1.42751 1.23937 0.134192 2.80351 -0.997886 2.12309 -3.06866 0.802462 3.22346 -0.0 0.0 0.0 -0.0 0.0 0.0 -2.29502e-14 -2.01313e-14 7.75843e-15 21.844 6.92953 -1.41754 -4.52774 -2.12228 7.00016 -0.000507594 0.474421 0.0667357 6.47968e-10 2.80808e-10 -1.0535e-09 1.11591e-09 4.86395e-10 -1.82453e-09 6.47973e-10 2.80812e-10 -1.05351e-09 7.73091 5.47488 0.417314 6.47968e-10 2.8081e-10 -1.0535e-09 2.90554 0.965183 0.102902 6.47977e-10 2.80808e-10 -1.0535e-09 10.2786 0.731801 0.0259123 6.47968e-10 2.80811e-10 -1.05349e-09 2.22167 -0.733487 -0.20892 -2.30769e-14 -2.01324e-14 7.38376e-15 -19.5693 10.267 1.14802 4.47785 -2.08852 -6.93472 -0.111883 -7.4378 1.01387 2.3502e-10 1.41551e-10 1.351e-09 3.83294e-10 2.51455e-10 2.33997e-09 2.35014e-10 1.41551e-10 1.35101e-09 -7.73091 5.47488 -0.417314 2.3502e-10 1.4155e-10 1.351e-09 -2.90554 0.965183 -0.102902 2.35011e-10 1.4155e-10 1.351e-09 -10.2786 0.731801 -0.0259123 2.35028e-10 1.41552e-10 1.35099e-09 -2.22167 -0.733487 0.20892 -2.03217e-16 0.0 -3.88251e-19 -1.49074 -10.3554 5.28653 0.027321 6.24383 0.129257 -0.777085 0.362807 -5.39084 2.03217e-16 0.0 3.88251e-19 -3.05843 -14.5724 -4.26803 -0.0220209 14.824 -0.292237 0.571971 -4.23569 1.58938
23.2647 80.1554 136.597 -144.286 -85.0237 162.342 -2.93758 -15.1641 1.9555 -1.98777 2.54244 0.444926 5.85011 -2.03474 4.36754 -6.39744 1.63139 6.629 -0.0 0.0 0.0 -0.0 0.0 0.0 -3.83741e-14 -4.70857e-14 1.56201e-14 45.3423 14.3181 -2.97933 -8.74489 -4.25271 14.416 -0.00285412 0.896424 0.126168 1.45734e-09 5.98771e-10 -2.21014e-09 2.51032e-09 1.03719e-09 -3.82775e-09 1.45735e-09 5.98777e-10 -2.21015e-09 7.73091 5.47488 0.417314 1.45734e-09 5.98775e-10 -2.21014e-09 2.90554 0.965183 0.102902 1.45735e-09 5.98771e-10 -2.21014e-09 10.2786 0.731801 0.0259123 1.45735e-09 5.98775e-10 -2.21014e-09 2.22167 -0.733487 -0.20892 -3.84277e-14 -4.7087e-14 1.53251e-14 -40.7712 21.151 2.50523 8.67609 -4.20163 -14.3105 0.0660313 -15.3292 2.14923 5.83336e-10 2.99649e-10 2.82356e-09 9.60129e-10 5.32179e-10 4.89053e-09 5.8333e-10 2.99649e-10 2.82357e-09 -7.73091 5.47488 -0.417314 5.83335e-10 2.99648e-10 2.82357e-09 -2.90554 0.965183 -0.102902 5.83325e-10 2.99648e-10 2.82357e-09 -10.2786 0.731801 -0.0259123 5.83343e-10 2.99649e-10 2.82356e-09 -2.22167 -0.733487 0.20892 -2.03217e-16 0.0 -3.88251e-19 0.970443 -18.9941 11.3017 0.00177022 15.0331 0.343017 -1.97798 -3.41135 -11.2319 2.03217e-16 0.0 3.88251e-19 -4.13638 -19.5854 -9.39551 -0.031404 17.875 -0.326195 0.811609 -6.30136 3.28679
23.3158 80.1486 136.648 -146.678 -85.1059 164.763 -2.41196 -22.0834 2.99972 -2.49915 3.69617 0.719111 8.63212 -2.97721 6.37695 -9.47562 2.37692 9.67783 -0.0 0.0 0.0 -0.0 0.0 0.0 -5.18498e-14 -6.01391e-14 2.26789e-14 66.6201 20.7359 -4.51453 -12.0591 -5.98751 21.1066 -0.00483916 1.42325 0.200262 2.11373e-09 8.44815e-10 -3.16194e-09 3.641e-09 1.46331e-09 -5.4761e-09 2.11373e-09 8.44823e-10 -3.16195e-09 7.73091 5.47488 0.417314 2.11372e-09 8.44821e-10 -3.16194e-09 2.90554 0.965183 0.102902 2.11373e-09 8.44815e-10 -3.16194e-09 10.2786 0.731801 0.0259123 2.11373e-09 8.4482e-10 -3.16194e-09 2.22167 -0.733487 -0.20892 -5.18407e-14 -6.01403e-14 2.24495e-14 -60.1127 30.7472 3.944 11.9472 -5.8992 -20.9061 0.50781 -22.2843 3.25972 8.75022e-10 4.2707e-10 4.05158e-09 1.44337e-09 7.58532e-10 7.01746e-09 8.75016e-10 4.27069e-10 4.05159e-09 -7.73091 5.47488 -0.417314 8.7502e-10 4.27067e-10 4.05159e-09 -2.90554 0.965183 -0.102902 8.75009e-10 4.27067e-10 4.05159e-09 -10.2786 0.731801 -0.0259123 8.75027e-10 4.27069e-10 4.05159e-09 -2.22167 -0.733487 0.20892 -2.03217e-16 0.0 -3.88251e-19 4.84634 -26.2496 17.4073 -0.0812976 22.8881 0.556465 -3.69836 -6.62558 -16.5197 2.03217e-16 0.0 3.88251e-19 -5.94615 -23.8061 -14.299 -0.0359849 20.5794 -0.358654 1.12767 -8.12347 4.81549
23.354 80.1477 136.691 -148.661 -85.1674 166.713 -1.97594 -26.8427 3.75513 -2.86116 4.47688 0.900491 10.6016 -3.69883 7.79193 -11.744 2.94183 11.8282 -0.0 0.0 0.0 -0.0 0.0 0.0 -6.04555e-14 -3.84396e-14 2.77305e-14 81.5428 24.777 -5.72297 -14.1643 -7.08769 25.885 -0.00600551 2.21215 0.311053 2.38763e-09 9.11064e-10 -3.60162e-09 4.11234e-09 1.57774e-09 -6.23728e-09 2.38764e-09 9.11072e-10 -3.60164e-09 7.73091 5.47488 0.417314 2.38763e-09 9.1107e-10 -3.60163e-09 2.90554 0.965183 0.102902 2.38764e-09 9.11063e-10 -3.60163e-09 10.2786 0.731801 0.0259123 2.38764e-09 9.11069e-10 -3.60163e-09 2.22167 -0.733487 -0.20892 -6.04095e-14 -3.844e-14 2.75317e-14 -73.7165 37.1778 5.09297 13.9493 -6.91358 -25.4521 0.980409 -26.9272 4.09351 1.02513e-09 4.77794e-10 4.66825e-09 1.69263e-09 8.48954e-10 8.08533e-09 1.02512e-09 4.77794e-10 4.66826e-09 -7.73091 5.47488 -0.417314 1.02513e-09 4.77791e-10 4.66826e-09 -2.90554 0.965183 -0.102902 1.02512e-09 4.77791e-10 4.66826e-09 -10.2786 0.731801 -0.0259123 1.02513e-09 4.77792e-10 4.66826e-09 -2.22167 -0.733487 0.20892 -2.03217e-16 0.0 -3.88251e-19 8.56691 -30.9379 22.2646 -0.179342 28.4082 0.728179 -5.25947 -8.74091 -20.2803 2.03217e-16 0.0 3.88251e-19 -7.75095 -26.5369 -17.9568 -0.0358028 22.4172 -0.383515 1.40021 -9.3579 5.89155
23.3961 80.1462 136.733 -150.668 -85.2245 168.698 -1.98044 -28.5962 3.96003 -3.00321 4.73437 0.953358 11.3685 -4.12977 8.37133 -12.8045 3.29033 12.7184 -0.0 0.0 0.0 -0.0 0.0 0.0 -6.3341e-14 6.22527e-14 3.22186e-14 87.1862 25.5202 -6.27622 -15.0083 -7.53971 27.9206 -0.0105338 3.39525 0.477479 2.07023e-09 7.13454e-10 -3.3434e-09 3.56338e-09 1.23404e-09 -5.789e-09 2.07024e-09 7.13462e-10 -3.34341e-09 7.73091 5.47488 0.417314 2.07023e-09 7.1346e-10 -3.34341e-09 2.90554 0.965183 0.102902 2.07023e-09 7.13454e-10 -3.34341e-09 10.2786 0.731801 0.0259123 2.07023e-09 7.13459e-10 -3.3434e-09 2.22167 -0.733487 -0.20892 -6.32976e-14 6.2255e-14 3.19888e-14 -78.6681 39.237 5.41218 14.6079 -7.21386 -27.0747 1.16985 -28.3437 4.37131 9.76651e-10 4.26244e-10 4.49891e-09 1.61313e-09 7.57629e-10 7.79096e-09 9.76645e-10 4.26245e-10 4.49892e-09 -7.73091 5.47488 -0.417314 9.76649e-10 4.26242e-10 4.49892e-09 -2.90554 0.965183 -0.102902 9.76639e-10 4.26242e-10 4.49891e-09 -10.2786 0.731801 -0.0259123 9.76655e-10 4.26243e-10 4.49891e-09 -2.22167 -0.733487 0.20892 -2.03217e-16 0.0 -3.88251e-19 10.1707 -32.7189 24.3314 -0.22948 30.6675 0.806539 -5.96464 -9.55425 -21.7837 2.03217e-16 0.0 3.88251e-19 -8.69587 -27.4981 -19.4642 -0.0320736 23.0278 -0.395885 1.50484 -9.77989 6.30945
